# xmcd
#
# Track frame offsets: 
#        150
#        9726
#        26696
#        39081
#        58051
#        70521
#        84357
#        106187
#        124660
#        141784
#
# Disc length: 2118 seconds
#
# Revision: 0
# Processed by: cddbd v1.5.2PL0 Copyright (c) Steve Scherf et al.
# Submitted via: ExactAudioCopy v0.95b4
#
DISCID=7608440a
DTITLE=Leo Welch - I Don't Prefer No Blues
DYEAR=2015
DGENRE=Blues
TTITLE0=Poor Boy
TTITLE1=Girl In the Holler
TTITLE2=I Don't Know Her Name
TTITLE3=Goin' Down Slow
TTITLE4=Cadillac Baby
TTITLE5=Too Much Wine
TTITLE6=I Woke Up
TTITLE7=So Many Turnrows
TTITLE8=Pray On
TTITLE9=Sweet Black Angel
EXTD=
EXTT0=
EXTT1=
EXTT2=
EXTT3=
EXTT4=
EXTT5=
EXTT6=
EXTT7=
EXTT8=
EXTT9=
PLAYORDER=
